<?xml version="1.0" encoding="UTF-8" standalone="no"?><!DOCTYPE svg PUBLIC "-//W3C//DTD SVG 1.1//EN" "http://www.w3.org/Graphics/SVG/1.1/DTD/svg11.dtd"><svg width="100%" height="100%" viewBox="0 0 384 463" version="1.1" xmlns="http://www.w3.org/2000/svg" xmlns:xlink="http://www.w3.org/1999/xlink" xml:space="preserve" xmlns:serif="http://www.serif.com/" style="fill-rule:evenodd;clip-rule:evenodd;stroke-linejoin:round;stroke-miterlimit:10;"><path d="M9.181,39.263l2.048,9.297l-4.913,1.082l-5.818,-26.411l8.603,-1.895c1.766,-0.389 3.34,-0.519 4.722,-0.389c1.382,0.129 2.574,0.473 3.578,1.031c1.004,0.558 1.821,1.31 2.451,2.256c0.63,0.947 1.08,2.035 1.351,3.265c0.281,1.278 0.326,2.497 0.135,3.657c-0.192,1.159 -0.629,2.216 -1.312,3.171c-0.684,0.955 -1.618,1.786 -2.803,2.494c-1.184,0.708 -2.635,1.251 -4.352,1.629l-3.69,0.813Zm-0.845,-3.836l3.69,-0.812c0.901,-0.199 1.662,-0.485 2.282,-0.857c0.62,-0.373 1.103,-0.818 1.449,-1.335c0.346,-0.516 0.562,-1.1 0.648,-1.751c0.087,-0.651 0.048,-1.348 -0.116,-2.091c-0.155,-0.706 -0.406,-1.321 -0.751,-1.845c-0.345,-0.524 -0.781,-0.939 -1.308,-1.244c-0.527,-0.306 -1.149,-0.491 -1.865,-0.557c-0.717,-0.065 -1.526,0.001 -2.427,0.2l-3.69,0.812l2.088,9.48Z" style="fill:#262626;fill-rule:nonzero;stroke:#262626;stroke-width:0.96px;"/><path d="M40.52,38.736c1.115,-0.212 2.067,-0.497 2.855,-0.856c0.788,-0.36 1.523,-0.788 2.202,-1.285l-0.917,-4.832l-3.326,0.631c-0.319,0.061 -0.587,0.02 -0.804,-0.123c-0.218,-0.143 -0.351,-0.343 -0.4,-0.6l-0.53,-2.793l8.838,-1.679l2.042,10.75c-0.581,0.618 -1.202,1.176 -1.862,1.676c-0.66,0.5 -1.382,0.945 -2.164,1.335c-0.783,0.389 -1.635,0.732 -2.556,1.028c-0.921,0.295 -1.927,0.546 -3.017,0.753c-1.935,0.368 -3.782,0.37 -5.539,0.005c-1.757,-0.364 -3.344,-1.034 -4.76,-2.008c-1.416,-0.975 -2.616,-2.232 -3.6,-3.772c-0.984,-1.539 -1.664,-3.294 -2.038,-5.267c-0.38,-1.996 -0.403,-3.889 -0.07,-5.679c0.333,-1.789 0.983,-3.397 1.949,-4.825c0.966,-1.427 2.238,-2.633 3.815,-3.618c1.577,-0.985 3.426,-1.678 5.545,-2.081c2.168,-0.412 4.106,-0.447 5.815,-0.105c1.708,0.342 3.212,0.923 4.509,1.742l-1.007,2.514c-0.196,0.507 -0.526,0.805 -0.992,0.893c-0.294,0.056 -0.613,0.015 -0.956,-0.123c-0.436,-0.158 -0.882,-0.315 -1.336,-0.47c-0.455,-0.154 -0.946,-0.27 -1.475,-0.348c-0.529,-0.077 -1.113,-0.112 -1.752,-0.105c-0.64,0.007 -1.364,0.088 -2.172,0.241c-1.311,0.249 -2.455,0.695 -3.43,1.337c-0.976,0.642 -1.76,1.445 -2.351,2.407c-0.592,0.963 -0.98,2.059 -1.166,3.287c-0.185,1.228 -0.143,2.553 0.127,3.974c0.291,1.531 0.764,2.853 1.419,3.966c0.656,1.113 1.448,2.006 2.375,2.681c0.928,0.674 1.966,1.127 3.114,1.36c1.148,0.232 2.353,0.229 3.615,-0.011Z" style="fill:#262626;fill-rule:nonzero;stroke:#262626;stroke-width:0.96px;"/><path d="M70.455,10.036l0.289,1.829c0.089,0.567 0.011,1.109 -0.235,1.628l-10.649,21.527l13.856,-2.19l0.628,3.972l-20.303,3.209l-0.31,-1.959c-0.039,-0.246 -0.033,-0.49 0.017,-0.731c0.05,-0.242 0.128,-0.472 0.232,-0.69l10.671,-21.625l-13.339,2.107l-0.624,-3.953l19.767,-3.124Z" style="fill:#262626;fill-rule:nonzero;stroke:#262626;stroke-width:0.96px;"/><path d="M97.282,11.549c-0.102,0.289 -0.237,0.5 -0.402,0.634c-0.166,0.133 -0.373,0.215 -0.62,0.245c-0.248,0.031 -0.538,-0.031 -0.871,-0.185c-0.333,-0.154 -0.724,-0.322 -1.174,-0.506c-0.45,-0.183 -0.968,-0.336 -1.554,-0.459c-0.587,-0.123 -1.264,-0.137 -2.031,-0.043c-0.693,0.085 -1.287,0.243 -1.78,0.473c-0.493,0.23 -0.897,0.515 -1.214,0.856c-0.316,0.34 -0.535,0.728 -0.658,1.164c-0.122,0.436 -0.153,0.901 -0.092,1.396c0.078,0.632 0.319,1.136 0.723,1.513c0.404,0.378 0.915,0.679 1.534,0.905c0.618,0.226 1.313,0.41 2.084,0.554c0.771,0.144 1.56,0.302 2.366,0.473c0.807,0.171 1.603,0.388 2.388,0.649c0.786,0.262 1.503,0.626 2.151,1.093c0.648,0.467 1.196,1.068 1.644,1.805c0.449,0.736 0.741,1.661 0.878,2.775c0.149,1.213 0.081,2.374 -0.204,3.483c-0.284,1.109 -0.778,2.105 -1.479,2.989c-0.702,0.884 -1.601,1.623 -2.696,2.216c-1.096,0.593 -2.386,0.98 -3.871,1.163c-0.854,0.105 -1.706,0.124 -2.556,0.059c-0.849,-0.065 -1.674,-0.206 -2.473,-0.422c-0.799,-0.216 -1.556,-0.5 -2.271,-0.852c-0.716,-0.351 -1.366,-0.762 -1.951,-1.23l1.154,-2.572c0.115,-0.19 0.261,-0.356 0.438,-0.497c0.178,-0.141 0.384,-0.226 0.619,-0.255c0.309,-0.038 0.659,0.048 1.049,0.257c0.39,0.21 0.849,0.44 1.376,0.689c0.526,0.249 1.136,0.46 1.83,0.633c0.693,0.172 1.504,0.201 2.432,0.087c1.423,-0.174 2.483,-0.647 3.18,-1.417c0.697,-0.77 0.968,-1.786 0.813,-3.049c-0.087,-0.705 -0.334,-1.259 -0.741,-1.661c-0.408,-0.403 -0.921,-0.72 -1.54,-0.951c-0.619,-0.232 -1.312,-0.408 -2.081,-0.527c-0.768,-0.119 -1.551,-0.255 -2.349,-0.409c-0.797,-0.153 -1.589,-0.357 -2.374,-0.613c-0.785,-0.255 -1.503,-0.625 -2.153,-1.111c-0.65,-0.486 -1.202,-1.124 -1.658,-1.916c-0.455,-0.792 -0.758,-1.801 -0.908,-3.026c-0.12,-0.978 -0.042,-1.955 0.234,-2.931c0.276,-0.976 0.744,-1.869 1.404,-2.679c0.661,-0.809 1.509,-1.498 2.545,-2.065c1.036,-0.566 2.253,-0.936 3.652,-1.107c1.584,-0.195 3.075,-0.127 4.472,0.204c1.397,0.331 2.621,0.885 3.671,1.66l-0.936,2.508Z" style="fill:#262626;fill-rule:nonzero;stroke:#262626;stroke-width:0.96px;"/><path d="M111.524,32.613c-1.65,0.167 -2.969,-0.172 -3.957,-1.018c-0.989,-0.847 -1.566,-2.095 -1.733,-3.744l-1.081,-10.663l-1.935,0.196c-0.248,0.025 -0.47,-0.034 -0.667,-0.177c-0.196,-0.143 -0.31,-0.375 -0.343,-0.698l-0.185,-1.824l3.02,-0.813l0.439,-5.308c0.025,-0.254 0.12,-0.457 0.286,-0.612c0.166,-0.155 0.386,-0.246 0.659,-0.274l2.381,-0.241l0.61,6.01l5.024,-0.509l0.332,3.275l-5.025,0.509l1.049,10.346c0.06,0.596 0.256,1.046 0.588,1.351c0.331,0.305 0.745,0.432 1.242,0.382c0.285,-0.029 0.52,-0.088 0.706,-0.175c0.185,-0.088 0.345,-0.176 0.48,-0.265c0.135,-0.089 0.255,-0.173 0.36,-0.253c0.105,-0.08 0.213,-0.125 0.325,-0.136c0.136,-0.014 0.251,0.009 0.345,0.068c0.094,0.06 0.197,0.152 0.31,0.279l1.604,2.093c-0.614,0.626 -1.34,1.126 -2.18,1.499c-0.839,0.374 -1.724,0.608 -2.654,0.702Z" style="fill:#262626;fill-rule:nonzero;stroke:#262626;stroke-width:0.96px;"/><path d="M126.247,11.43c1.429,-0.113 2.743,0.014 3.942,0.381c1.199,0.368 2.242,0.941 3.129,1.721c0.888,0.78 1.604,1.761 2.148,2.944c0.545,1.182 0.877,2.526 0.996,4.03c0.121,1.516 0.006,2.901 -0.345,4.155c-0.35,1.253 -0.902,2.342 -1.654,3.265c-0.752,0.923 -1.691,1.66 -2.816,2.213c-1.126,0.552 -2.403,0.885 -3.833,0.999c-1.429,0.113 -2.746,-0.013 -3.951,-0.38c-1.205,-0.367 -2.255,-0.947 -3.15,-1.739c-0.895,-0.792 -1.617,-1.778 -2.168,-2.96c-0.551,-1.182 -0.886,-2.532 -1.007,-4.048c-0.119,-1.504 -0.001,-2.883 0.356,-4.137c0.357,-1.255 0.915,-2.337 1.674,-3.248c0.76,-0.911 1.705,-1.643 2.837,-2.196c1.132,-0.553 2.412,-0.886 3.842,-1Zm1.285,16.165c1.591,-0.126 2.727,-0.755 3.406,-1.884c0.679,-1.13 0.937,-2.727 0.773,-4.79c-0.164,-2.063 -0.671,-3.605 -1.522,-4.626c-0.85,-1.02 -2.071,-1.467 -3.662,-1.341c-1.616,0.129 -2.766,0.767 -3.45,1.916c-0.684,1.149 -0.945,2.749 -0.781,4.8c0.163,2.051 0.672,3.583 1.528,4.597c0.857,1.014 2.093,1.457 3.708,1.328Z" style="fill:#262626;fill-rule:nonzero;stroke:#262626;stroke-width:0.96px;"/><path d="M153.442,14.045c-0.127,0.182 -0.254,0.327 -0.379,0.433c-0.125,0.107 -0.312,0.168 -0.561,0.181c-0.237,0.013 -0.471,-0.045 -0.703,-0.176c-0.232,-0.131 -0.509,-0.278 -0.83,-0.441c-0.321,-0.164 -0.7,-0.305 -1.138,-0.424c-0.437,-0.12 -0.973,-0.162 -1.608,-0.127c-0.81,0.045 -1.511,0.231 -2.105,0.557c-0.594,0.326 -1.078,0.774 -1.452,1.345c-0.375,0.57 -0.64,1.249 -0.796,2.039c-0.156,0.789 -0.207,1.675 -0.153,2.659c0.057,1.02 0.216,1.923 0.478,2.708c0.262,0.785 0.613,1.436 1.054,1.955c0.441,0.519 0.962,0.902 1.562,1.15c0.601,0.248 1.268,0.352 2.003,0.311c0.735,-0.041 1.324,-0.164 1.769,-0.37c0.444,-0.205 0.816,-0.426 1.115,-0.661c0.299,-0.235 0.559,-0.449 0.779,-0.642c0.221,-0.193 0.474,-0.298 0.76,-0.314c0.374,-0.021 0.662,0.107 0.864,0.383l1.419,1.608c-0.477,0.625 -1.003,1.157 -1.579,1.595c-0.575,0.437 -1.176,0.795 -1.804,1.074c-0.628,0.278 -1.281,0.486 -1.961,0.623c-0.679,0.138 -1.354,0.225 -2.027,0.262c-1.182,0.066 -2.309,-0.094 -3.379,-0.478c-1.07,-0.384 -2.018,-0.978 -2.843,-1.781c-0.825,-0.804 -1.499,-1.806 -2.021,-3.007c-0.522,-1.201 -0.827,-2.586 -0.913,-4.155c-0.078,-1.407 0.052,-2.722 0.39,-3.946c0.338,-1.224 0.875,-2.296 1.611,-3.217c0.736,-0.921 1.669,-1.663 2.799,-2.225c1.13,-0.562 2.449,-0.885 3.955,-0.968c1.432,-0.079 2.699,0.082 3.801,0.483c1.103,0.401 2.107,1.007 3.014,1.819l-1.121,1.747Z" style="fill:#262626;fill-rule:nonzero;stroke:#262626;stroke-width:0.96px;"/><path d="M171.934,11.216c0.011,0.324 -0.037,0.64 -0.145,0.95c-0.108,0.309 -0.239,0.572 -0.394,0.79l-8.712,12.312l9.458,-0.323l0.121,3.551l-14.823,0.507l-0.065,-1.926c-0.008,-0.211 0.034,-0.466 0.123,-0.762c0.09,-0.296 0.236,-0.579 0.439,-0.848l8.783,-12.445l-9.272,0.317l-0.121,-3.533l14.543,-0.497l0.065,1.907Z" style="fill:#262626;fill-rule:nonzero;stroke:#262626;stroke-width:0.96px;"/><path d="M176.233,28.395l-0.197,-19.188l2.824,-0.029c0.598,-0.006 0.994,0.27 1.187,0.829l0.333,1.512c0.383,-0.403 0.787,-0.769 1.214,-1.098c0.427,-0.328 0.879,-0.613 1.357,-0.855c0.477,-0.242 0.99,-0.428 1.537,-0.558c0.547,-0.131 1.145,-0.199 1.794,-0.206c1.047,-0.011 1.978,0.158 2.792,0.505c0.814,0.347 1.495,0.838 2.044,1.475c0.549,0.636 0.969,1.399 1.258,2.288c0.29,0.888 0.44,1.869 0.451,2.941l0.126,12.212l-4.62,0.048l-0.125,-12.213c-0.012,-1.172 -0.293,-2.076 -0.842,-2.712c-0.549,-0.637 -1.365,-0.95 -2.45,-0.939c-0.798,0.009 -1.544,0.197 -2.239,0.566c-0.694,0.369 -1.35,0.868 -1.967,1.498l0.142,13.877l-4.619,0.047Z" style="fill:#262626;fill-rule:nonzero;stroke:#262626;stroke-width:0.96px;"/><path d="M202.464,9.048l-0.163,19.189l-4.62,-0.039l0.164,-19.189l4.619,0.039Zm0.74,-5.586c-0.004,0.399 -0.088,0.772 -0.253,1.12c-0.165,0.348 -0.383,0.651 -0.653,0.911c-0.27,0.26 -0.587,0.466 -0.95,0.618c-0.363,0.153 -0.75,0.228 -1.161,0.224c-0.399,-0.003 -0.776,-0.084 -1.13,-0.243c-0.354,-0.159 -0.661,-0.37 -0.92,-0.634c-0.26,-0.264 -0.466,-0.572 -0.619,-0.922c-0.153,-0.351 -0.228,-0.725 -0.224,-1.124c0.003,-0.412 0.084,-0.798 0.243,-1.158c0.159,-0.36 0.371,-0.67 0.635,-0.93c0.264,-0.259 0.574,-0.465 0.931,-0.618c0.357,-0.153 0.734,-0.228 1.133,-0.224c0.412,0.003 0.798,0.084 1.158,0.243c0.36,0.159 0.673,0.371 0.939,0.635c0.266,0.264 0.478,0.577 0.637,0.94c0.159,0.363 0.237,0.751 0.234,1.162Z" style="fill:#262626;fill-rule:nonzero;stroke:#262626;stroke-width:0.96px;"/><path d="M222.585,28.679l-2.075,-0.054c-0.437,-0.012 -0.778,-0.086 -1.023,-0.224c-0.246,-0.137 -0.426,-0.407 -0.541,-0.809l-0.375,-1.375c-0.498,0.423 -0.985,0.794 -1.461,1.112c-0.476,0.318 -0.966,0.583 -1.47,0.794c-0.505,0.211 -1.039,0.366 -1.603,0.463c-0.564,0.098 -1.188,0.138 -1.874,0.12c-0.81,-0.021 -1.555,-0.15 -2.235,-0.387c-0.68,-0.237 -1.26,-0.58 -1.741,-1.031c-0.481,-0.451 -0.85,-1.005 -1.107,-1.662c-0.257,-0.658 -0.375,-1.418 -0.352,-2.281c0.019,-0.725 0.227,-1.436 0.626,-2.133c0.399,-0.697 1.048,-1.318 1.948,-1.864c0.9,-0.546 2.09,-0.987 3.571,-1.324c1.48,-0.336 3.311,-0.476 5.493,-0.419l0.029,-1.131c0.034,-1.293 -0.212,-2.258 -0.738,-2.894c-0.526,-0.636 -1.306,-0.967 -2.341,-0.994c-0.748,-0.02 -1.373,0.051 -1.876,0.213c-0.504,0.161 -0.942,0.346 -1.315,0.555c-0.374,0.208 -0.718,0.395 -1.035,0.562c-0.316,0.166 -0.661,0.244 -1.035,0.235c-0.311,-0.008 -0.577,-0.096 -0.797,-0.264c-0.221,-0.168 -0.396,-0.372 -0.527,-0.613l-0.803,-1.499c2.259,-1.962 4.947,-2.902 8.063,-2.82c1.122,0.029 2.117,0.239 2.986,0.63c0.87,0.391 1.601,0.921 2.195,1.591c0.593,0.671 1.037,1.465 1.331,2.383c0.294,0.919 0.427,1.92 0.399,3.004l-0.317,12.116Zm-8.899,-3.114c0.473,0.012 0.911,-0.019 1.312,-0.095c0.401,-0.075 0.782,-0.194 1.141,-0.357c0.36,-0.162 0.708,-0.365 1.045,-0.608c0.337,-0.243 0.678,-0.531 1.024,-0.866l0.084,-3.211c-1.346,-0.035 -2.474,0.02 -3.382,0.166c-0.908,0.146 -1.64,0.343 -2.195,0.593c-0.555,0.249 -0.953,0.546 -1.193,0.892c-0.239,0.345 -0.365,0.725 -0.375,1.139c-0.022,0.816 0.203,1.406 0.674,1.771c0.47,0.364 1.092,0.556 1.865,0.576Z" style="fill:#262626;fill-rule:nonzero;stroke:#262626;stroke-width:0.96px;"/><path d="M233.99,1.909l4.217,0.298c0.435,0.031 0.791,0.159 1.069,0.385c0.278,0.226 0.454,0.517 0.529,0.872l3.448,16.463c0.084,0.406 0.156,0.845 0.216,1.318c0.06,0.473 0.116,0.974 0.166,1.502c0.136,-0.515 0.28,-1.002 0.431,-1.46c0.151,-0.458 0.309,-0.881 0.474,-1.269l6.441,-15.763c0.119,-0.28 0.334,-0.527 0.643,-0.742c0.309,-0.216 0.675,-0.309 1.097,-0.279l1.474,0.104c0.436,0.031 0.789,0.159 1.061,0.385c0.271,0.225 0.451,0.516 0.538,0.872l4.119,16.51c0.218,0.816 0.392,1.715 0.522,2.7c0.121,-0.479 0.244,-0.939 0.369,-1.38c0.125,-0.442 0.251,-0.851 0.378,-1.23l5.731,-15.813c0.109,-0.305 0.321,-0.559 0.635,-0.762c0.315,-0.202 0.683,-0.289 1.106,-0.259l3.937,0.279l-10.286,26.385l-4.533,-0.321l-4.592,-18.85c-0.058,-0.242 -0.117,-0.502 -0.179,-0.781c-0.061,-0.28 -0.118,-0.578 -0.171,-0.894c-0.096,0.306 -0.195,0.593 -0.295,0.861c-0.1,0.267 -0.196,0.517 -0.287,0.748l-7.256,18.012l-4.534,-0.321l-6.468,-27.57Z" style="fill:#262626;fill-rule:nonzero;stroke:#262626;stroke-width:0.96px;"/><path d="M282.826,13.477c1.426,0.152 2.694,0.519 3.805,1.101c1.11,0.583 2.029,1.339 2.758,2.269c0.728,0.931 1.251,2.027 1.568,3.29c0.317,1.262 0.395,2.644 0.235,4.144c-0.161,1.513 -0.529,2.853 -1.105,4.02c-0.576,1.168 -1.319,2.136 -2.228,2.904c-0.91,0.768 -1.968,1.32 -3.177,1.655c-1.208,0.335 -2.525,0.427 -3.951,0.275c-1.425,-0.152 -2.697,-0.519 -3.813,-1.102c-1.117,-0.583 -2.042,-1.346 -2.775,-2.29c-0.733,-0.943 -1.262,-2.046 -1.585,-3.31c-0.323,-1.263 -0.404,-2.651 -0.243,-4.164c0.16,-1.5 0.531,-2.833 1.113,-4c0.582,-1.167 1.33,-2.128 2.245,-2.883c0.914,-0.756 1.979,-1.301 3.193,-1.635c1.214,-0.335 2.534,-0.426 3.96,-0.274Zm-1.718,16.124c1.587,0.17 2.819,-0.238 3.695,-1.223c0.876,-0.985 1.424,-2.507 1.643,-4.565c0.219,-2.058 0.005,-3.667 -0.643,-4.827c-0.647,-1.16 -1.764,-1.825 -3.351,-1.994c-1.612,-0.172 -2.86,0.244 -3.745,1.247c-0.884,1.003 -1.435,2.527 -1.653,4.573c-0.218,2.046 0,3.646 0.655,4.8c0.654,1.155 1.787,1.818 3.399,1.989Z" style="fill:#262626;fill-rule:nonzero;stroke:#262626;stroke-width:0.96px;"/><path d="M300.972,15.901l-2.438,19.694c-0.103,0.829 -0.308,1.596 -0.615,2.299c-0.307,0.703 -0.732,1.301 -1.277,1.792c-0.545,0.492 -1.223,0.848 -2.036,1.068c-0.812,0.219 -1.775,0.26 -2.889,0.122c-0.433,-0.053 -0.832,-0.131 -1.196,-0.232c-0.364,-0.102 -0.731,-0.238 -1.099,-0.41l0.454,-2.45c0.068,-0.243 0.186,-0.388 0.356,-0.437c0.169,-0.048 0.483,-0.043 0.94,0.013c0.458,0.057 0.851,0.058 1.178,0.005c0.327,-0.054 0.599,-0.171 0.816,-0.352c0.217,-0.18 0.386,-0.432 0.508,-0.757c0.122,-0.324 0.214,-0.733 0.275,-1.228l2.438,-19.694l4.585,0.567Zm1.373,-5.464c-0.049,0.396 -0.175,0.757 -0.379,1.083c-0.204,0.327 -0.455,0.604 -0.753,0.831c-0.298,0.227 -0.636,0.395 -1.014,0.505c-0.378,0.111 -0.771,0.141 -1.18,0.09c-0.396,-0.049 -0.76,-0.173 -1.094,-0.371c-0.333,-0.198 -0.614,-0.444 -0.842,-0.736c-0.227,-0.292 -0.397,-0.62 -0.509,-0.986c-0.112,-0.366 -0.143,-0.747 -0.094,-1.143c0.05,-0.408 0.175,-0.782 0.374,-1.122c0.199,-0.339 0.445,-0.623 0.737,-0.851c0.292,-0.227 0.624,-0.397 0.996,-0.508c0.372,-0.111 0.756,-0.142 1.152,-0.093c0.408,0.051 0.782,0.176 1.122,0.375c0.339,0.199 0.626,0.445 0.86,0.738c0.234,0.292 0.409,0.628 0.525,1.007c0.117,0.379 0.15,0.772 0.099,1.181Z" style="fill:#262626;fill-rule:nonzero;stroke:#262626;stroke-width:0.96px;"/><path d="M314.348,17.434c1.197,0.173 2.271,0.523 3.221,1.05c0.951,0.528 1.738,1.211 2.36,2.05c0.622,0.839 1.06,1.822 1.314,2.948c0.253,1.127 0.281,2.375 0.084,3.745c-0.05,0.345 -0.106,0.63 -0.17,0.854c-0.064,0.224 -0.145,0.395 -0.244,0.513c-0.099,0.118 -0.22,0.195 -0.364,0.231c-0.144,0.036 -0.321,0.038 -0.53,0.008l-11.737,-1.69c-0.145,1.969 0.173,3.476 0.955,4.521c0.781,1.045 1.925,1.676 3.431,1.893c0.74,0.106 1.391,0.112 1.953,0.016c0.562,-0.095 1.058,-0.219 1.49,-0.371c0.431,-0.152 0.81,-0.292 1.138,-0.422c0.327,-0.129 0.632,-0.173 0.916,-0.132c0.185,0.026 0.34,0.087 0.465,0.18c0.126,0.094 0.228,0.216 0.307,0.366l1.093,1.858c-0.592,0.519 -1.231,0.934 -1.918,1.245c-0.687,0.31 -1.391,0.536 -2.11,0.678c-0.72,0.142 -1.442,0.211 -2.165,0.208c-0.724,-0.003 -1.419,-0.053 -2.086,-0.149c-1.32,-0.19 -2.517,-0.586 -3.589,-1.188c-1.072,-0.602 -1.966,-1.392 -2.682,-2.371c-0.716,-0.978 -1.223,-2.135 -1.522,-3.469c-0.299,-1.334 -0.329,-2.834 -0.089,-4.501c0.187,-1.295 0.572,-2.484 1.156,-3.565c0.584,-1.081 1.329,-1.988 2.235,-2.721c0.905,-0.732 1.958,-1.264 3.158,-1.595c1.201,-0.331 2.51,-0.394 3.93,-0.19Zm-0.38,3.29c-1.333,-0.192 -2.43,0.035 -3.291,0.679c-0.861,0.644 -1.496,1.643 -1.905,2.995l8.589,1.237c0.086,-0.593 0.086,-1.163 0.001,-1.71c-0.085,-0.548 -0.265,-1.043 -0.542,-1.486c-0.276,-0.443 -0.651,-0.815 -1.124,-1.116c-0.473,-0.301 -1.049,-0.501 -1.728,-0.599Z" style="fill:#262626;fill-rule:nonzero;stroke:#262626;stroke-width:0.96px;"/><path d="M323.477,38.492l3.213,-18.919l2.785,0.473c0.59,0.1 0.93,0.443 1.02,1.027l0.06,1.547c0.448,-0.329 0.911,-0.617 1.39,-0.864c0.478,-0.248 0.974,-0.448 1.487,-0.601c0.513,-0.154 1.05,-0.246 1.612,-0.277c0.561,-0.031 1.162,0.008 1.801,0.116c1.033,0.176 1.919,0.506 2.658,0.992c0.74,0.487 1.323,1.091 1.75,1.815c0.428,0.724 0.705,1.549 0.832,2.475c0.128,0.926 0.101,1.918 -0.078,2.975l-2.045,12.041l-4.554,-0.774l2.044,-12.041c0.197,-1.155 0.081,-2.095 -0.346,-2.819c-0.427,-0.724 -1.176,-1.177 -2.245,-1.358c-0.787,-0.134 -1.555,-0.081 -2.304,0.159c-0.749,0.239 -1.483,0.614 -2.202,1.125l-2.323,13.681l-4.555,-0.773Z" style="fill:#262626;fill-rule:nonzero;stroke:#262626;stroke-width:0.96px;"/><path d="M344.467,42.116l3.698,-18.829l2.771,0.544c0.588,0.115 0.919,0.466 0.994,1.053l0.02,1.548c0.457,-0.317 0.927,-0.593 1.412,-0.829c0.484,-0.235 0.985,-0.422 1.502,-0.562c0.516,-0.14 1.056,-0.219 1.618,-0.235c0.563,-0.017 1.162,0.037 1.798,0.162c1.028,0.202 1.905,0.556 2.632,1.06c0.727,0.505 1.294,1.125 1.703,1.86c0.408,0.734 0.664,1.566 0.768,2.495c0.103,0.929 0.051,1.92 -0.155,2.972l-2.354,11.984l-4.533,-0.89l2.354,-11.985c0.226,-1.15 0.134,-2.092 -0.274,-2.827c-0.409,-0.734 -1.145,-1.206 -2.209,-1.415c-0.784,-0.154 -1.553,-0.121 -2.307,0.099c-0.755,0.221 -1.499,0.576 -2.23,1.068l-2.675,13.618l-4.533,-0.891Z" style="fill:#262626;fill-rule:nonzero;stroke:#262626;stroke-width:0.96px;"/><path d="M380.021,49.543l-2.027,-0.45c-0.426,-0.094 -0.746,-0.232 -0.961,-0.414c-0.215,-0.182 -0.341,-0.481 -0.376,-0.897l-0.106,-1.422c-0.57,0.32 -1.118,0.592 -1.646,0.813c-0.528,0.221 -1.06,0.388 -1.595,0.499c-0.536,0.111 -1.09,0.161 -1.662,0.149c-0.572,-0.012 -1.193,-0.092 -1.862,-0.241c-0.792,-0.175 -1.498,-0.444 -2.12,-0.806c-0.623,-0.362 -1.127,-0.81 -1.513,-1.344c-0.386,-0.534 -0.643,-1.148 -0.77,-1.843c-0.127,-0.695 -0.097,-1.463 0.09,-2.306c0.157,-0.708 0.498,-1.366 1.022,-1.974c0.524,-0.608 1.28,-1.094 2.268,-1.458c0.987,-0.364 2.24,-0.57 3.757,-0.618c1.518,-0.048 3.342,0.164 5.472,0.636l0.245,-1.104c0.28,-1.264 0.223,-2.258 -0.172,-2.982c-0.395,-0.725 -1.098,-1.199 -2.108,-1.423c-0.731,-0.162 -1.358,-0.211 -1.883,-0.149c-0.525,0.063 -0.99,0.161 -1.397,0.294c-0.406,0.133 -0.78,0.252 -1.122,0.355c-0.342,0.103 -0.696,0.114 -1.061,0.033c-0.305,-0.068 -0.549,-0.205 -0.733,-0.412c-0.184,-0.207 -0.317,-0.441 -0.4,-0.701l-0.502,-1.625c2.592,-1.495 5.41,-1.905 8.453,-1.23c1.096,0.243 2.033,0.639 2.811,1.188c0.779,0.549 1.396,1.21 1.851,1.981c0.454,0.771 0.738,1.636 0.852,2.593c0.113,0.958 0.053,1.966 -0.182,3.025l-2.623,11.833Zm-8.141,-4.755c0.462,0.102 0.898,0.155 1.306,0.157c0.408,0.003 0.804,-0.041 1.188,-0.132c0.384,-0.091 0.765,-0.224 1.142,-0.398c0.377,-0.174 0.767,-0.392 1.17,-0.655l0.695,-3.136c-1.314,-0.291 -2.431,-0.452 -3.351,-0.482c-0.919,-0.03 -1.675,0.024 -2.268,0.163c-0.592,0.139 -1.039,0.355 -1.341,0.648c-0.301,0.293 -0.496,0.642 -0.586,1.047c-0.177,0.797 -0.069,1.419 0.324,1.866c0.392,0.447 0.966,0.755 1.721,0.922Z" style="fill:#262626;fill-rule:nonzero;stroke:#262626;stroke-width:0.96px;"/><path d="M1.196,250.776l15.396,0c7.558,67.208 48.359,126.229 112.29,160.792c21.346,11.297 42.943,22.953 62.56,33.564l0,17.414c-23.229,-12.57 -46.473,-25.139 -69.723,-37.44c-67.873,-36.695 -112.775,-100.761 -120.523,-174.33Z" style="fill:#262626;fill-rule:nonzero;"/><path d="M381.573,250.776c-8.062,73.491 -52.859,137.441 -120.409,174.144c-23.249,12.362 -46.495,24.994 -69.722,37.626l-0.001,0l0,-17.501l0.001,0.001c19.583,-10.647 41.143,-22.344 62.436,-33.667c63.697,-34.607 104.414,-93.481 112.29,-160.603l15.405,0Z" style="fill:#b8b8b8;fill-rule:nonzero;"/><path d="M191.441,41.104l0.001,0c64.259,0 128.52,7.516 191.439,22.546l0,163.155c0.008,8.087 -0.435,16.085 -1.308,23.971l-15.406,0c0.934,-7.879 1.406,-15.881 1.399,-23.971l0,-151.049c-57.753,-12.885 -116.938,-19.413 -176.124,-19.413l-0.001,0l0,-15.239Z" style="fill:#262626;fill-rule:nonzero;"/><path d="M191.442,56.42c-59.188,0 -118.374,6.56 -176.126,19.51l-0,151.818c-0.007,7.761 0.422,15.442 1.276,23.028l-15.396,0c-0.799,-7.583 -1.203,-15.272 -1.196,-23.042l0,-163.97c62.92,-15.106 127.181,-22.66 191.441,-22.66l0,15.316l0.001,0Z" style="fill:#b8b8b8;fill-rule:nonzero;"/><path d="M191.442,250.776l-174.85,0c-0.853,-7.586 -1.283,-15.267 -1.276,-23.029l0,-151.817c57.753,-12.95 116.938,-19.51 176.126,-19.51l0,194.356Z" style="fill:#262626;fill-rule:nonzero;"/><path d="M191.441,250.776l0,194.356c-19.616,-10.611 -41.213,-22.267 -62.559,-33.564c-63.93,-34.563 -104.731,-93.584 -112.29,-160.792l174.849,0Z" style="fill:#b8b8b8;fill-rule:nonzero;"/><path d="M191.441,56.42l0.001,0c59.186,0 118.371,6.56 176.124,19.51l0,151.804c0.007,7.771 -0.424,15.46 -1.278,23.042l-174.847,0l0,-194.356Z" style="fill:#b8b8b8;fill-rule:nonzero;"/><path d="M63.809,183.484l-0.097,-2.031c2.225,0 4.159,-0.29 5.803,-0.871c1.645,-0.58 2.708,-1.741 3.192,-3.482c0.387,-1.354 0.677,-4.158 0.967,-8.511c0.194,-4.255 0.387,-8.704 0.484,-13.25c0,-4.546 0.097,-8.801 0.097,-12.96c0,-7.254 -0.194,-11.606 -0.484,-12.864c-0.29,-1.354 -1.257,-2.128 -2.902,-2.418c-1.547,-0.29 -3.868,-0.483 -6.867,-0.483l-0.096,-1.838c4.545,-0.097 8.221,-0.29 11.316,-0.484c2.998,-0.29 5.416,-0.58 7.254,-0.87c1.837,-0.29 3.965,-0.774 6.383,-1.257l0.58,1.837l-3.385,0.774c-1.837,0.387 -3.095,1.064 -3.578,2.031c-0.581,0.967 -0.968,2.515 -1.161,4.546c-0.387,3.095 -0.58,6.287 -0.677,9.285c-0.193,3.095 -0.29,5.996 -0.29,8.801c0,2.708 -0.097,6.287 -0.097,10.446c0,11.702 0.58,18.183 1.644,19.44c0.387,0.484 1.258,0.87 2.418,1.161c1.258,0.386 3.579,0.677 6.964,0.967l-0.097,1.934c-4.449,-0.29 -7.544,-0.387 -9.478,-0.387c-6.964,0 -12.96,0.194 -17.893,0.484Z" style="fill:#b8b8b8;fill-rule:nonzero;"/><path d="M111.032,185.032l-0.774,-1.741c6.48,-2.515 11.606,-5.803 15.572,-10.059c3.868,-4.159 6.577,-8.415 8.124,-12.864c1.547,-4.449 2.321,-8.704 2.321,-12.766c0,-3.966 -0.483,-7.448 -1.451,-10.446c-0.967,-2.998 -2.224,-5.416 -3.675,-7.254c-1.451,-1.934 -3.095,-3.288 -4.836,-4.255c-1.644,-0.967 -3.288,-1.451 -4.836,-1.451c-1.934,0 -3.772,0.58 -5.416,1.644c-1.644,1.161 -2.998,2.708 -3.965,4.739c-0.967,2.128 -1.451,4.546 -1.451,7.254c0,3.095 0.58,6.093 1.741,8.801c1.257,2.805 2.805,4.933 4.836,6.577c2.031,1.645 4.062,2.515 6.286,2.515c1.451,0 2.999,-0.484 4.546,-1.257c1.644,-0.871 2.902,-1.741 3.966,-2.515l0,2.128c-2.225,1.451 -3.966,2.514 -5.223,3.288c-1.257,0.774 -2.418,1.354 -3.385,1.548c-0.967,0.29 -2.225,0.483 -3.482,0.483c-2.611,0 -5.126,-0.773 -7.447,-2.418c-2.322,-1.547 -4.159,-3.675 -5.513,-6.286c-1.451,-2.612 -2.128,-5.513 -2.128,-8.512c0,-3.288 0.774,-6.48 2.418,-9.575c1.547,-3.095 3.772,-5.609 6.577,-7.544c2.901,-1.934 5.996,-2.901 9.381,-2.901c2.515,0 5.03,0.58 7.448,1.644c2.418,1.161 4.545,2.708 6.383,4.739c1.838,2.128 3.288,4.643 4.352,7.544c1.064,2.999 1.644,6.287 1.644,9.769c0,2.514 -0.29,5.223 -0.87,8.221c-0.58,2.901 -1.644,6.093 -3.192,9.478c-1.644,3.385 -3.868,6.48 -6.77,9.285c-1.741,1.741 -3.578,3.385 -5.706,4.836c-2.128,1.451 -4.062,2.611 -5.803,3.482c-1.741,0.87 -3.482,1.644 -5.32,2.321c-1.837,0.677 -3.288,1.161 -4.352,1.548Z" style="fill:#b8b8b8;fill-rule:nonzero;"/><path d="M366.288,250.776c-7.568,67.222 -48.379,126.24 -112.41,160.857c-21.293,11.267 -42.853,22.906 -62.436,33.5l0,-194.356l174.846,0l0,-0.001Z" style="fill:#262626;fill-rule:nonzero;"/><path d="M253.973,350.187l-22.439,0c-1.934,0 -4.159,0.194 -6.577,0.484c-0.29,-0.484 -0.387,-0.871 -0.58,-1.064l6.867,-7.06c16.055,-16.249 24.083,-28.242 24.083,-35.98c0,-3.578 -1.161,-6.383 -3.385,-8.511c-2.322,-2.031 -5.126,-3.095 -8.512,-3.095c-4.932,0 -8.994,1.741 -12.283,5.32l-1.741,-1.451c1.548,-1.741 3.095,-3.192 4.546,-4.449c1.354,-1.257 3.192,-2.321 5.513,-3.385c2.225,-0.967 4.739,-1.451 7.447,-1.451c2.805,0 5.32,0.58 7.641,1.741c2.321,1.257 4.159,2.902 5.513,5.126c1.354,2.225 2.031,4.739 2.031,7.641c0,2.901 -0.58,5.706 -1.838,8.318c-1.16,2.611 -2.998,5.319 -5.319,8.221c-2.321,2.804 -5.416,6.19 -9.188,10.155l-7.834,8.318c-0.097,0.096 -0.387,0.483 -0.774,0.87c-0.484,0.484 -0.967,0.967 -1.354,1.451l-2.612,2.805l14.895,0.096c3.965,0 6.673,-0.096 8.124,-0.193c1.451,-0.097 2.805,-0.387 4.062,-0.967c1.161,-0.484 2.322,-1.354 3.289,-2.612c1.064,-1.16 2.224,-2.901 3.482,-5.319l1.741,0.967l-5.32,9.769c-0.29,0.483 -0.677,1.16 -1.064,2.031c-0.483,0.773 -0.87,1.644 -1.257,2.418c-0.387,0.773 -0.774,1.547 -1.161,2.224l-1.451,-0.097c-0.29,-0.967 -0.87,-1.547 -1.547,-1.837c-0.677,-0.29 -1.644,-0.484 -2.998,-0.484Z" style="fill:#b8b8b8;fill-rule:nonzero;"/><path d="M301.389,350.187l-22.438,0c-1.935,0 -4.159,0.194 -6.577,0.484c-0.29,-0.484 -0.387,-0.871 -0.581,-1.064l6.867,-7.06c16.056,-16.249 24.083,-28.242 24.083,-35.98c0,-3.578 -1.16,-6.383 -3.385,-8.511c-2.321,-2.031 -5.126,-3.095 -8.511,-3.095c-4.933,0 -8.995,1.741 -12.283,5.32l-1.741,-1.451c1.547,-1.741 3.095,-3.192 4.545,-4.449c1.355,-1.257 3.192,-2.321 5.513,-3.385c2.225,-0.967 4.74,-1.451 7.448,-1.451c2.804,0 5.319,0.58 7.64,1.741c2.322,1.257 4.159,2.902 5.513,5.126c1.354,2.225 2.031,4.739 2.031,7.641c0,2.901 -0.58,5.706 -1.837,8.318c-1.161,2.611 -2.999,5.319 -5.32,8.221c-2.321,2.804 -5.416,6.19 -9.188,10.155l-7.834,8.318c-0.097,0.096 -0.387,0.483 -0.774,0.87c-0.483,0.484 -0.967,0.967 -1.354,1.451l-2.611,2.805l14.894,0.096c3.966,0 6.674,-0.096 8.125,-0.193c1.45,-0.097 2.804,-0.387 4.062,-0.967c1.16,-0.484 2.321,-1.354 3.288,-2.612c1.064,-1.16 2.225,-2.901 3.482,-5.319l1.741,0.967l-5.32,9.769c-0.29,0.483 -0.677,1.16 -1.063,2.031c-0.484,0.773 -0.871,1.644 -1.258,2.418c-0.387,0.773 -0.774,1.547 -1.16,2.224l-1.451,-0.097c-0.29,-0.967 -0.871,-1.547 -1.548,-1.837c-0.677,-0.29 -1.644,-0.484 -2.998,-0.484Z" style="fill:#b8b8b8;"/><path d="M115.738,297.245l39.648,24.473l-28.825,-32.173l-10.823,7.7Zm42.26,53.548l-63.125,-60.795l-2.861,24.114l65.986,36.681Zm-38.514,3.487l-38.144,-32.562l-15.334,10.911l53.478,21.651Z" style="fill:#262626;fill-rule:nonzero;"/><path d="M279.819,107.716c-2.276,0.015 -4.553,0.478 -6.698,1.362c-5.039,2.078 -8.732,6.16 -11.06,10.954c-2.011,4.137 -2.905,8.859 -3.175,13.414c-0.016,0.256 -0.028,0.517 -0.04,0.783c-2.423,0 -4.847,0.003 -7.27,0.012l-3.594,0.014l0,2.739c-0.449,-0.208 -0.949,-0.325 -1.478,-0.325c-1.922,0 -3.479,1.536 -3.479,3.431c0,1.894 1.557,3.43 3.479,3.43c0.529,0 1.029,-0.117 1.478,-0.324l0,4.056l0.006,0c0.021,1.93 0.094,3.833 0.223,5.709c-8.347,0.899 -16.7,5.093 -18.043,14.084c-0.785,5.261 1.366,10.562 5.073,14.32c4.435,4.496 10.598,6.578 16.879,6.622c2.499,0.017 5.001,-0.31 7.442,-0.878c2.781,3.946 6.124,7.668 10.096,11.156l1.374,1.206l1.797,-0.388c3.549,-0.767 7.059,-1.998 10.407,-3.378c4.076,-1.68 8.052,-3.645 11.931,-5.736c4.678,2.734 10.134,3.63 15.611,1.146c5.165,-2.344 8.758,-7.168 10.057,-12.562c1.513,-6.284 -0.154,-12.656 -4.006,-17.805c-0.398,-0.532 -0.82,-1.046 -1.261,-1.541l12.155,-11.758l-4.699,-2.175c-8.801,-4.072 -18.617,-7.101 -28.592,-8.947c0.129,-0.308 0.253,-0.617 0.372,-0.928c2.011,-5.253 2.813,-11.163 0.899,-16.564c-1.565,-4.42 -4.801,-7.969 -9.184,-9.812c-2.147,-0.902 -4.424,-1.333 -6.7,-1.317Zm-28.229,38.413c0,21.966 6.908,37.584 20.468,49.489c6.589,-1.422 14.094,-4.922 19.841,-7.942c-1.022,-0.852 -1.991,-1.787 -2.89,-2.786c-3.347,-3.713 -5.555,-7.689 -6.859,-11.865c-1.797,2.1 -3.644,3.897 -6.058,5.971c-8.653,-10.764 -12.519,-19.249 -15.505,-30.224l2.783,-2.399c-0.56,-2.961 -0.808,-5.772 -0.617,-8.614l-0.398,0.001l-2.204,6.27c-0.426,1.213 -1.246,2.099 -2.766,2.099l-5.795,0Zm34.236,4.431c6.031,0.129 21.265,3.174 28.1,12.31c12.081,16.149 -6.72,36.852 -22.221,19.657c-7.284,-8.081 -9.222,-18.146 -5.879,-31.967Zm-28.363,33.365c-1.776,0.341 -3.56,0.526 -5.317,0.515c-20.971,-0.146 -26.741,-25.449 -3.622,-27.923c1.09,9.986 3.889,19.153 8.939,27.408Zm11.153,-23.329c4.744,2.332 8.925,5.474 11.681,9.043c-1.197,1.477 -2.424,2.809 -3.745,4.095c-3.275,-4.388 -5.836,-8.597 -7.936,-13.138Zm8.968,-5.114c1.689,0 3.059,1.35 3.059,3.015c0,1.666 -1.37,3.016 -3.059,3.016c-1.689,0 -3.058,-1.35 -3.058,-3.016c0,-1.665 1.369,-3.015 3.058,-3.015Zm43.907,-6.978l-2.655,2.569c-7.236,-4.175 -21.274,-8.169 -29.614,-9.105c8.791,2.648 19.897,6.364 26.503,12.114l-2.527,2.444c-10.286,-8.495 -24.349,-14.119 -40.917,-14.119l-0.22,0.02c-0.154,-1.522 -0.193,-3.102 -0.087,-4.629l0.229,0c12.904,0 31.67,2.554 49.288,10.706Zm-48.837,-2.538c3.339,0.017 6.678,0.281 9.975,0.802c-4.536,4.103 -10.258,7.199 -16.465,7.8c-0.13,-1.13 -2.074,-3.637 0.135,-3.134l7.916,0c-0.517,-1.824 -1.079,-3.636 -1.561,-5.468Zm-5.052,-14.238l1.944,0c-1.757,4.724 -1.507,11.344 -0.115,16.149l-2.058,0c-1.323,-5.687 -1.629,-10.525 0.229,-16.149Zm-16.012,10.844l0,-4.774l6.933,0l-1.678,4.774l-5.255,0Zm28.561,-31.293c2.004,0.02 3.997,0.473 5.806,1.422c4.912,2.408 7.485,7.967 7.224,13.209c-0.089,3.388 -1.026,6.713 -2.404,9.804c-6.034,-0.937 -12.138,-1.453 -18.247,-1.472c0.618,-2.059 1.458,-4.046 2.182,-6.071l-9.73,0c-0.649,1.991 -1.371,3.968 -1.758,6.029l-0.766,0.002c0.286,-6.878 2.217,-14.225 7.568,-19.01c2.595,-2.421 6.159,-3.844 9.724,-3.911c0.133,-0.003 0.267,-0.003 0.401,-0.002Z" style="fill:#262626;"/></svg>