<svg width="379" height="197" viewBox="0 0 379 197" fill="none" xmlns="http://www.w3.org/2000/svg">
<path d="M21.516 197C17.4659 197 13.8096 196.147 10.547 194.44C7.28449 192.733 4.69695 190.258 2.78441 187.015C0.928135 183.773 0 179.875 0 175.324V174.129C0 169.578 0.928135 165.681 2.78441 162.438C4.69695 159.195 7.28449 156.72 10.547 155.014C13.8096 153.307 17.4659 152.453 21.516 152.453C25.5098 152.453 28.9129 153.165 31.7255 154.587C34.5943 156.009 36.9006 157.972 38.6443 160.475C40.3881 162.922 41.5132 165.681 42.0194 168.753L32.6536 170.716C32.4286 168.952 31.8942 167.359 31.0505 165.937C30.2067 164.458 28.9973 163.291 27.4223 162.438C25.9035 161.585 24.0191 161.158 21.7691 161.158C19.4628 161.158 17.3815 161.67 15.5252 162.694C13.7252 163.661 12.2908 165.14 11.2221 167.132C10.2095 169.123 9.70328 171.512 9.70328 174.3V175.153C9.70328 177.941 10.2095 180.331 11.2221 182.322C12.2908 184.256 13.7252 185.735 15.5252 186.759C17.3815 187.783 19.4628 188.296 21.7691 188.296C25.2004 188.296 27.7879 187.414 29.5317 185.65C31.3317 183.829 32.4567 181.497 32.9067 178.652L42.2725 180.871C41.5975 183.829 40.3881 186.532 38.6443 188.978C36.9006 191.425 34.5943 193.387 31.7255 194.867C28.9129 196.289 25.5098 197 21.516 197Z" fill="#121CFF"/>
<path d="M54.2428 195.805V153.648H63.7773V158.512H65.2117C65.8304 156.749 66.8711 155.469 68.3336 154.672C69.7961 153.876 71.5399 153.478 73.5649 153.478H78.6275V162.182H73.3962C70.5836 162.182 68.3055 162.95 66.5617 164.486C64.8179 165.965 63.946 168.269 63.946 171.399V195.805H54.2428Z" fill="#121CFF"/>
<path d="M107.319 197C103.157 197 99.4724 196.118 96.2661 194.355C93.1161 192.534 90.641 190.002 88.841 186.759C87.0972 183.46 86.2253 179.619 86.2253 175.239V174.215C86.2253 169.777 87.0972 165.937 88.841 162.694C90.5848 159.451 93.0317 156.948 96.1817 155.184C99.3318 153.364 102.96 152.453 107.066 152.453C111.116 152.453 114.66 153.364 117.698 155.184C120.735 156.948 123.098 159.451 124.785 162.694C126.473 165.937 127.317 169.72 127.317 174.044V177.543H96.013C96.1255 180.843 97.2786 183.488 99.4724 185.479C101.666 187.471 104.366 188.466 107.573 188.466C110.723 188.466 113.057 187.783 114.576 186.418C116.095 184.996 117.248 183.403 118.035 181.639L126.051 185.821C125.263 187.357 124.11 189.007 122.592 190.77C121.129 192.477 119.16 193.956 116.685 195.208C114.21 196.403 111.088 197 107.319 197ZM96.0974 170.118H117.445C117.22 167.331 116.151 165.112 114.238 163.462C112.382 161.812 109.963 160.987 106.982 160.987C103.888 160.987 101.413 161.812 99.5568 163.462C97.7005 165.112 96.5474 167.331 96.0974 170.118Z" fill="#121CFF"/>
<path d="M159.553 197C155.39 197 151.65 196.147 148.331 194.44C145.068 192.676 142.481 190.201 140.568 187.015C138.712 183.773 137.784 179.904 137.784 175.409V174.044C137.784 169.55 138.712 165.681 140.568 162.438C142.481 159.195 145.068 156.72 148.331 155.014C151.65 153.307 155.39 152.453 159.553 152.453C163.716 152.453 167.428 153.307 170.691 155.014C173.953 156.72 176.513 159.195 178.369 162.438C180.281 165.681 181.238 169.55 181.238 174.044V175.409C181.238 179.904 180.281 183.773 178.369 187.015C176.513 190.201 173.953 192.676 170.691 194.44C167.428 196.147 163.716 197 159.553 197ZM159.553 188.296C163.097 188.296 165.994 187.158 168.244 184.882C170.494 182.549 171.619 179.307 171.619 175.153V174.3C171.619 170.147 170.494 166.932 168.244 164.657C165.994 162.324 163.097 161.158 159.553 161.158C156.009 161.158 153.112 162.324 150.862 164.657C148.612 166.932 147.487 170.147 147.487 174.3V175.153C147.487 179.307 148.612 182.549 150.862 184.882C153.112 187.158 156.009 188.296 159.553 188.296Z" fill="#121CFF"/>
<path d="M210.202 195.805C208.009 195.805 206.349 195.236 205.224 194.099C204.156 192.961 203.621 191.368 203.621 189.32V158.939H190.458V154.331H203.621V138.799H208.684V154.331H223.028V158.939H208.684V188.637C208.684 190.344 209.527 191.197 211.215 191.197H220.834V195.805H210.202Z" fill="#121CFF"/>
<path d="M254.275 197C250.056 197 246.372 196.118 243.222 194.355C240.128 192.534 237.709 190.002 235.966 186.759C234.222 183.517 233.35 179.79 233.35 175.58V174.556C233.35 170.289 234.222 166.563 235.966 163.377C237.709 160.134 240.1 157.631 243.138 155.867C246.231 154.046 249.747 153.136 253.685 153.136C257.51 153.136 260.885 153.961 263.81 155.611C266.791 157.204 269.126 159.537 270.813 162.609C272.501 165.624 273.344 169.237 273.344 173.447V176.177H238.413C238.581 181.355 240.128 185.366 243.053 188.21C246.035 190.998 249.775 192.392 254.275 192.392C258.1 192.392 261.053 191.51 263.135 189.746C265.272 187.983 266.904 185.821 268.029 183.261L272.585 185.309C271.741 187.186 270.56 189.035 269.041 190.856C267.579 192.619 265.666 194.099 263.304 195.293C260.941 196.431 257.932 197 254.275 197ZM238.497 171.74H268.197C267.972 167.245 266.538 163.803 263.894 161.414C261.25 158.968 257.847 157.744 253.685 157.744C249.578 157.744 246.175 158.968 243.475 161.414C240.775 163.803 239.116 167.245 238.497 171.74Z" fill="#121CFF"/>
<path d="M307.066 197C303.072 197 299.5 196.147 296.35 194.44C293.256 192.676 290.809 190.173 289.009 186.93C287.209 183.687 286.309 179.875 286.309 175.495V174.641C286.309 170.204 287.209 166.392 289.009 163.206C290.809 159.963 293.256 157.488 296.35 155.782C299.5 154.018 303.072 153.136 307.066 153.136C311.003 153.136 314.322 153.904 317.022 155.44C319.779 156.919 321.916 158.882 323.435 161.329C325.01 163.718 325.994 166.25 326.388 168.924L321.41 169.948C321.129 167.729 320.425 165.709 319.3 163.889C318.175 162.011 316.6 160.532 314.575 159.451C312.55 158.313 310.047 157.744 307.066 157.744C304.085 157.744 301.413 158.456 299.05 159.878C296.688 161.243 294.803 163.206 293.397 165.766C292.047 168.269 291.372 171.256 291.372 174.727V175.409C291.372 178.88 292.047 181.895 293.397 184.455C294.803 186.959 296.688 188.921 299.05 190.344C301.413 191.709 304.085 192.392 307.066 192.392C311.566 192.392 314.997 191.225 317.36 188.893C319.722 186.503 321.185 183.602 321.747 180.188L326.726 181.212C326.219 183.886 325.151 186.447 323.519 188.893C321.944 191.282 319.779 193.245 317.022 194.781C314.322 196.26 311.003 197 307.066 197Z" fill="#121CFF"/>
<path d="M341.706 195.805V136.069H346.768V161.585H347.781C348.456 160.219 349.384 158.939 350.565 157.744C351.803 156.493 353.378 155.497 355.29 154.758C357.259 153.961 359.706 153.563 362.631 153.563C365.612 153.563 368.34 154.189 370.816 155.44C373.291 156.692 375.259 158.569 376.722 161.073C378.241 163.576 379 166.733 379 170.545V195.805H373.937V170.887C373.937 166.335 372.812 163.092 370.562 161.158C368.312 159.167 365.303 158.171 361.534 158.171C357.315 158.171 353.8 159.565 350.987 162.353C348.174 165.14 346.768 169.379 346.768 175.068V195.805H341.706Z" fill="#121CFF"/>
<path fill-rule="evenodd" clip-rule="evenodd" d="M189.5 98.0808C216.359 98.0808 238.133 76.1247 238.133 49.0404C238.133 21.9561 216.359 0 189.5 0C162.641 0 140.867 21.9561 140.867 49.0404C140.867 76.1247 162.641 98.0808 189.5 98.0808ZM189.5 91.5421C212.778 91.5421 231.648 72.5135 231.648 49.0404C231.648 37.8985 227.397 27.7579 220.44 20.1784L212.195 30.5711V56.1367C215.973 57.483 218.68 61.1162 218.68 65.3868C218.68 70.8037 214.325 75.1949 208.953 75.1949C203.581 75.1949 199.227 70.8037 199.227 65.3868C199.227 61.1165 201.933 57.4835 205.711 56.137V28.2774L215.671 15.7225C208.482 9.97265 199.389 6.53872 189.5 6.53872C166.222 6.53872 147.352 25.5674 147.352 49.0404C147.352 61.7775 152.908 73.2059 161.71 80.9956L170.047 70.7791V45.2127C166.269 43.8663 163.563 40.2332 163.563 35.9626C163.563 30.5457 167.917 26.1545 173.289 26.1545C178.661 26.1545 183.016 30.5457 183.016 35.9626C183.016 40.2329 180.309 43.8659 176.532 45.2124V73.0728L166.894 84.918C173.426 89.1123 181.182 91.5421 189.5 91.5421Z" fill="#121CFF"/>
</svg>
